#!OML:ASF G:\JayActor3\Patient Classification 1\Patient 1\Session 5\male.ASF
:FULLY-SPECIFIED
:DEGREES
822
root -14.2701 16.6676 -4.65071 -506.321 87.7967 -526.593
lowerback 28.3764 -1.20315 1.66727
upperback 6.12785 -0.509839 0.0873259
thorax -8.82208 -0.0527474 -0.721197
lowerneck 6.17104 -0.285181 0.812637
upperneck -17.227 0.372683 2.40465
head -6.24101 0.0586032 0.58864
rclavicle 1.66482e-014 2.25372e-014
rhumerus -26.5977 1.67293 -87.7141
rradius 35.5705
rwrist -4.54847
rhand -20.3091 -7.3805
rfingers 7.12502
rthumb 6.04139 -37.2744
lclavicle 1.66482e-014 2.25372e-014
lhumerus -28.1518 -8.01588 86.9121
lradius 37.451
lwrist 26.6356
lhand -19.374 10.2853
lfingers 7.12502
lthumb 6.9441 40.1514
rfemur -50.2091 -1.95371 27.9497
rtibia 45.6513
rfoot -18.5696 -6.71973
rtoes 0.113866
lfemur -57.9517 6.22443 -18.1248
ltibia 86.986
lfoot -1.49151 -1.64186
ltoes -18.0292
823
root -14.3677 16.6776 -4.6556 -506.852 87.8244 -527.13
lowerback 28.3083 -1.20823 1.65611
upperback 6.12248 -0.524797 0.0694092
thorax -8.79487 -0.0602872 -0.729726
lowerneck 6.1611 -0.280456 0.818045
upperneck -17.2003 0.375342 2.38754
head -6.23081 0.0608635 0.582066
rclavicle -1.75676e-014 -3.516e-014
rhumerus -26.6439 1.61502 -87.7377
rradius 35.5592
rwrist -4.60883
rhand -20.2677 -7.42746
rfingers 7.12502
rthumb 6.08138 -37.3202
lclavicle -1.75676e-014 -3.516e-014
lhumerus -28.1992 -7.95051 86.8643
lradius 37.3984
lwrist 26.5789
lhand -19.3906 10.2954
lfingers 7.12502
lthumb 6.92809 40.162
rfemur -50.3523 -1.94452 27.8933
rtibia 45.1965
rfoot -18.2246 -6.73894
rtoes -0.00743463
lfemur -56.9741 6.266 -18.114
ltibia 87.0514
lfoot -1.30689 -1.74179
ltoes -18.4121
824
root -14.4656 16.6863 -4.66092 -507.695 87.8497 -527.978
lowerback 28.2379 -1.21512 1.63137
upperback 6.11667 -0.545883 0.0520875
thorax -8.767 -0.0704133 -0.727646
lowerneck 6.1478 -0.273184 0.83046
upperneck -17.1758 0.381341 2.3632
head -6.22074 0.064931 0.571793
rclavicle 6.55989e-015 1.51325e-014
rhumerus -26.6838 1.58402 -87.764
rradius 35.5281
rwrist -4.62313
rhand -20.2514 -7.45575
rfingers 7.12502
rthumb 6.09709 -37.348
lclavicle 6.55989e-015 1.51325e-014
lhumerus -28.2441 -7.86004 86.8163
lradius 37.3447
lwrist 26.5212
lhand -19.407 10.2951
lfingers 7.12502
lthumb 6.91224 40.1622
rfemur -50.5035 -1.94227 27.8242
rtibia 44.762
rfoot -17.9249 -6.74508
rtoes -0.102833
lfemur -55.9866 6.2883 -18.1223
ltibia 87.0097
lfoot -1.10525 -1.8488
ltoes -18.5831
825
root -14.564 16.6933 -4.6666 -509.041 87.877 -529.332
lowerback 28.1646 -1.22158 1.585
upperback 6.11044 -0.572851 0.032709
thorax -8.73804 -0.0828764 -0.713378
lowerneck 6.12813 -0.265179 0.848601
upperneck -17.1567 0.388907 2.3357
head -6.2113 0.069781 0.559451
rclavicle -2.47238e-014 -2.59414e-014
rhumerus -26.7169 1.57446 -87.7897
rradius 35.4914
rwrist -4.62639
rhand -20.2114 -7.48614
rfingers 7.12502
rthumb 6.13575 -37.3773
lclavicle -2.47238e-014 -2.59414e-014
lhumerus -28.289 -7.75351 86.7693
lradius 37.2986
lwrist 26.4734
lhand -19.4332 10.2869
lfingers 7.12502
lthumb 6.88698 40.1549
rfemur -50.6668 -1.93826 27.7282
rtibia 44.3511
rfoot -17.6491 -6.74255
rtoes -0.207051
lfemur -54.997 6.28443 -18.1562
ltibia 86.8656
lfoot -0.874676 -1.97158
ltoes -18.4776
826
root -14.6629 16.6987 -4.67262 -510.621 87.9011 -530.925
lowerback 28.0907 -1.22751 1.52945
upperback 6.10045 -0.601923 0.0134336
thorax -8.71292 -0.0963147 -0.692993
lowerneck 6.11157 -0.256221 0.862558
upperneck -17.152 0.399602 2.31665
head -6.20696 0.075823 0.550286
rclavicle -1.01877e-014 -3.18552e-014
rhumerus -26.7576 1.57551 -87.8149
rradius 35.4527
rwrist -4.58133
rhand -20.1943 -7.47442
rfingers 7.12502
rthumb 6.15228 -37.3651
lclavicle -1.01877e-014 -3.18552e-014
lhumerus -28.3385 -7.64427 86.7264
lradius 37.2618
lwrist 26.4479
lhand -19.4648 10.2592
lfingers 7.12502
lthumb 6.85651 40.1282
rfemur -50.8539 -1.9385 27.6239
rtibia 43.9631
rfoot -17.3621 -6.74312
rtoes -0.323737
lfemur -54.0179 6.25958 -18.2062
ltibia 86.6233
lfoot -0.608188 -2.11075
ltoes -18.1708
827
root -14.7625 16.7023 -4.67899 -512.33 87.9241 -532.656
lowerback 28.0146 -1.22844 1.4725
upperback 6.08756 -0.625601 -0.00916316
thorax -8.68982 -0.107388 -0.677402
lowerneck 6.10091 -0.254602 0.884247
upperneck -17.1689 0.403772 2.30536
head -6.21052 0.0776242 0.542796
rclavicle -5.59082e-015 -7.1314e-015
rhumerus -26.8067 1.56314 -87.8374
rradius 35.4237
rwrist -4.51998
rhand -20.1677 -7.45242
rfingers 7.12502
rthumb 6.17788 -37.3423
lclavicle -5.59082e-015 -7.1314e-015
lhumerus -28.389 -7.56443 86.6907
lradius 37.2368
lwrist 26.4454
lhand -19.509 10.2357
lfingers 7.12502
lthumb 6.81377 40.1061
rfemur -51.0661 -1.93239 27.512
rtibia 43.5977
rfoot -17.0397 -6.76211
rtoes -0.458832
lfemur -53.0526 6.22295 -18.2688
ltibia 86.2874
lfoot -0.302785 -2.28627
ltoes -17.6889
828
root -14.863 16.7043 -4.68587 -513.741 87.9475 -534.091
lowerback 27.944 -1.22394 1.42749
upperback 6.0721 -0.639057 -0.0327378
thorax -8.67227 -0.114049 -0.673294
lowerneck 6.09327 -0.259256 0.903429
upperneck -17.202 0.402752 2.31029
head -6.2197 0.0758683 0.541257
rclavicle 4.5969e-015 -1.49089e-016
rhumerus -26.8681 1.53126 -87.8569
rradius 35.4088
rwrist -4.45052
rhand -20.1411 -7.41604
rfingers 7.12502
rthumb 6.2036 -37.3052
lclavicle 4.5969e-015 -1.49089e-016
lhumerus -28.4399 -7.5156 86.662
lradius 37.2207
lwrist 26.4709
lhand -19.5543 10.1894
lfingers 7.12502
lthumb 6.77004 40.0612
rfemur -51.2978 -1.91247 27.4054
rtibia 43.2522
rfoot -16.6886 -6.78455
rtoes -0.492625
lfemur -52.0965 6.18057 -18.3284
ltibia 85.8604
lfoot 0.153665 -2.48751
ltoes -16.8122
829
root -14.9642 16.705 -4.69327 -514.714 87.9786 -535.089
lowerback 27.8775 -1.2117 1.39471
upperback 6.05401 -0.63939 -0.0571354
thorax -8.65949 -0.114972 -0.681634
lowerneck 6.09966 -0.270326 0.923902
upperneck -17.2545 0.395606 2.32363
head -6.23746 0.0702601 0.542658
rclavicle 2.4699e-014 1.98785e-015
rhumerus -26.9412 1.48561 -87.8747
rradius 35.4055
rwrist -4.38835
rhand -20.1274 -7.36835
rfingers 7.12502
rthumb 6.2168 -37.2571
lclavicle 2.4699e-014 1.98785e-015
lhumerus -28.49 -7.50063 86.6408
lradius 37.2121
lwrist 26.5126
lhand -19.5964 10.1452
lfingers 7.12502
lthumb 6.72944 40.0183
rfemur -51.5457 -1.86836 27.3039
rtibia 42.9236
rfoot -16.3237 -6.8102
rtoes -0.400092
lfemur -51.1482 6.14356 -18.3827
ltibia 85.335
lfoot 0.717929 -2.74263
ltoes -15.7465
830
root -15.066 16.7047 -4.70145 -515.242 88.0211 -535.638
lowerback 27.8164 -1.19401 1.37092
upperback 6.03856 -0.629846 -0.0810914
thorax -8.64628 -0.111347 -0.698023
lowerneck 6.1054 -0.284775 0.942925
upperneck -17.313 0.384896 2.34223
head -6.257 0.0626306 0.54624
rclavicle 2.12203e-014 1.85864e-014
rhumerus -27.0137 1.43484 -87.8913
rradius 35.4045
rwrist -4.34248
rhand -20.1326 -7.31881
rfingers 7.12502
rthumb 6.21177 -37.2077
lclavicle 2.12203e-014 1.85864e-014
lhumerus -28.5304 -7.50657 86.6258
lradius 37.2026
lwrist 26.5582
lhand -19.626 10.0956
lfingers 7.12502
lthumb 6.70083 39.9696
rfemur -51.7958 -1.8067 27.209
rtibia 42.6073
rfoot -15.9633 -6.82627
rtoes -0.214249
lfemur -50.1958 6.11328 -18.435
ltibia 84.7095
lfoot 1.47252 -3.05275
ltoes -14.2989
831
root -15.1684 16.7031 -4.71051 -515.521 88.0802 -535.931
lowerback 27.7619 -1.17151 1.34559
upperback 6.02645 -0.614235 -0.105956
thorax -8.63247 -0.10471 -0.716578
lowerneck 6.10917 -0.299598 0.960512
upperneck -17.3683 0.373189 2.36022
head -6.27521 0.0546491 0.549937
rclavicle 2.20154e-014 3.2874e-014
rhumerus -27.0802 1.39673 -87.9099
rradius 35.4001
rwrist -4.32372
rhand -20.1533 -7.27917
rfingers 7.12502
rthumb 6.19177 -37.1687
lclavicle 2.20154e-014 3.2874e-014
lhumerus -28.561 -7.51796 86.6152
lradius 37.1902
lwrist 26.5918
lhand -19.6425 10.0552
lfingers 7.12502
lthumb 6.68494 39.9296
rfemur -52.0453 -1.72965 27.1135
rtibia 42.3016
rfoot -15.611 -6.84434
rtoes -0.0732935
lfemur -49.2345 6.08542 -18.4949
ltibia 83.9778
lfoot 2.38908 -3.41532
ltoes -12.5005
832
root -15.2715 16.6999 -4.72058 -515.448 88.1512 -535.864
lowerback 27.7116 -1.14912 1.32184
upperback 6.01779 -0.597655 -0.128132
thorax -8.61678 -0.0974864 -0.733349
lowerneck 6.11254 -0.3083 0.970509
upperneck -17.4123 0.367321 2.37276
head -6.28978 0.0503524 0.552741
rclavicle 8.24956e-015 1.56046e-014
rhumerus -27.1359 1.37689 -87.929
rradius 35.387
rwrist -4.325
rhand -20.1831 -7.26194
rfingers 7.12502
rthumb 6.16305 -37.1523
lclavicle 8.24956e-015 1.56046e-014
lhumerus -28.5811 -7.51756 86.6078
lradius 37.1666
lwrist 26.6034
lhand -19.637 10.0165
lfingers 7.12502
lthumb 6.69022 39.8908
rfemur -52.2919 -1.65195 27.0283
rtibia 42.0048
rfoot -15.289 -6.85651
rtoes 0.0222967
lfemur -48.2634 6.05555 -18.5603
ltibia 83.1403
lfoot 3.40535 -3.82739
ltoes -10.506
833
root -15.3749 16.6953 -4.73182 -515.214 88.2302 -535.623
lowerback 27.6629 -1.12989 1.29732
upperback 6.01606 -0.584541 -0.148896
thorax -8.59411 -0.091548 -0.746916
lowerneck 6.11275 -0.310638 0.973904
upperneck -17.4404 0.367328 2.37914
head -6.29874 0.0497769 0.554237
rclavicle -6.16232e-015 -2.00773e-014
rhumerus -27.1732 1.38531 -87.9509
rradius 35.3605
rwrist -4.34415
rhand -20.2197 -7.2632
rfingers 7.12502
rthumb 6.12772 -37.1546
lclavicle -6.16232e-015 -2.00773e-014
lhumerus -28.5887 -7.49834 86.6022
lradius 37.1331
lwrist 26.578
lhand -19.6282 9.99856
lfingers 7.12502
lthumb 6.69877 39.8726
rfemur -52.5334 -1.5881 26.9518
rtibia 41.7214
rfoot -14.9858 -6.87267
rtoes -0.0532711
lfemur -47.2744 6.01735 -18.6403
ltibia 82.1976
lfoot 4.44976 -4.27603
ltoes -8.41181
834
root -15.4797 16.6885 -4.74398 -514.814 88.3096 -535.206
lowerback 27.6211 -1.11539 1.27492
upperback 6.01635 -0.576177 -0.167317
thorax -8.57271 -0.0877311 -0.757444
lowerneck 6.11399 -0.305585 0.968693
upperneck -17.4477 0.374381 2.381
head -6.30134 0.0534115 0.555197
rclavicle 1.5207e-014 3.10601e-014
rhumerus -27.1962 1.40833 -87.9737
rradius 35.3217
rwrist -4.35871
rhand -20.2564 -7.27181
rfingers 7.12502
rthumb 6.09227 -37.1642
lclavicle 1.5207e-014 3.10601e-014
lhumerus -28.5914 -7.45945 86.5971
lradius 37.0925
lwrist 26.5283
lhand -19.608 9.97751
lfingers 7.12502
lthumb 6.71822 39.8509
rfemur -52.7813 -1.54769 26.8914
rtibia 41.4565
rfoot -14.6969 -6.8903
rtoes -0.299712
lfemur -46.2823 5.9736 -18.7356
ltibia 81.1537
lfoot 5.46152 -4.73065
ltoes -6.43127
835
root -15.5853 16.6793 -4.75719 -514.391 88.3856 -534.755
lowerback 27.5804 -1.10613 1.25828
upperback 6.02078 -0.572494 -0.186327
thorax -8.54739 -0.0860183 -0.770367
lowerneck 6.12 -0.297297 0.964596
upperneck -17.4396 0.383846 2.37586
head -6.29988 0.0585185 0.553567
rclavicle -1.97791e-014 -1.61513e-014
rhumerus -27.2073 1.43982 -87.9984
rradius 35.2791
rwrist -4.36254
rhand -20.2824 -7.29009
rfingers 7.12502
rthumb 6.06718 -37.1832
lclavicle -1.97791e-014 -1.61513e-014
lhumerus -28.5907 -7.41625 86.5945
lradius 37.0509
lwrist 26.4548
lhand -19.6006 9.98303
lfingers 7.12502
lthumb 6.72542 39.8562
rfemur -53.0388 -1.53945 26.8457
rtibia 41.2168
rfoot -14.4056 -6.91217
rtoes -0.674719
lfemur -45.2809 5.91589 -18.8502
ltibia 80.0116
lfoot 6.39182 -5.14429
ltoes -4.59717
836
root -15.6925 16.6674 -4.77115 -513.939 88.4596 -534.27
lowerback 27.5382 -1.09859 1.24333
upperback 6.02793 -0.570328 -0.205422
thorax -8.51828 -0.0849262 -0.783843
lowerneck 6.12852 -0.28949 0.962746
upperneck -17.4151 0.391016 2.36581
head -6.2936 0.0625913 0.550155
rclavicle 1.40143e-014 2.50966e-014
rhumerus -27.2067 1.47819 -88.0239
rradius 35.2358
rwrist -4.35619
rhand -20.2983 -7.30321
rfingers 7.12502
rthumb 6.05182 -37.1968
lclavicle 1.40143e-014 2.50966e-014
lhumerus -28.5875 -7.36992 86.5938
lradius 37.0087
lwrist 26.3793
lhand -19.599 9.97295
lfingers 7.12502
lthumb 6.72692 39.8461
rfemur -53.3183 -1.56022 26.8162
rtibia 41.0075
rfoot -14.0947 -6.93947
rtoes -1.12592
lfemur -44.2847 5.8532 -18.9885
ltibia 78.7715
lfoot 7.29158 -5.46038
ltoes -2.72169
